<svg width="24" height="24" viewBox="0 0 24 24" fill="none" xmlns="http://www.w3.org/2000/svg">
<circle cx="12" cy="12" r="12" fill="#D20404"/>
<path d="M8.91969 8.15007C8.81886 8.05269 8.68382 7.9988 8.54364 8.00002C8.40347 8.00124 8.26938 8.05746 8.17026 8.15659C8.07114 8.25571 8.01491 8.3898 8.01369 8.52997C8.01248 8.67015 8.06636 8.80519 8.16375 8.90602L11.2512 11.9934L8.16321 15.0808C8.11215 15.1302 8.07142 15.1891 8.0434 15.2544C8.01538 15.3196 8.00064 15.3898 8.00002 15.4607C7.9994 15.5317 8.01293 15.6021 8.03981 15.6678C8.06669 15.7335 8.10639 15.7932 8.15659 15.8434C8.20678 15.8936 8.26647 15.9333 8.33218 15.9602C8.39788 15.9871 8.46828 16.0006 8.53926 16C8.61025 15.9994 8.6804 15.9846 8.74563 15.9566C8.81085 15.9286 8.86984 15.8878 8.91916 15.8368L12.0071 12.7494L15.0945 15.8368C15.1953 15.9342 15.3304 15.9881 15.4706 15.9868C15.6107 15.9856 15.7448 15.9294 15.8439 15.8303C15.9431 15.7312 15.9993 15.5971 16.0005 15.4569C16.0017 15.3167 15.9478 15.1817 15.8505 15.0808L12.7631 11.9934L15.8505 8.90602C15.9478 8.80519 16.0017 8.67015 16.0005 8.52997C15.9993 8.3898 15.9431 8.25571 15.8439 8.15659C15.7448 8.05746 15.6107 8.00124 15.4706 8.00002C15.3304 7.9988 15.1953 8.05269 15.0945 8.15007L12.0071 11.2375L8.91969 8.15007Z" fill="white"/>
</svg>
